<svg xmlns="http://www.w3.org/2000/svg" viewBox="0 0 200 200">
  <!-- Folha Central -->
  <path d="M 100 30 Q 130 60 120 100 Q 110 130 100 160 Q 90 130 80 100 Q 70 60 100 30 Z" 
        fill="#66BB6A" stroke="#2E7D32" stroke-width="2"/>
  <path d="M 100 40 Q 105 60 100 100 Q 95 140 100 160" 
        stroke="#2E7D32" stroke-width="1.5" fill="none"/>
  
  <!-- Nervuras -->
  <path d="M 80 70 Q 85 80 90 95" stroke="#2E7D32" stroke-width="1" fill="none" opacity="0.5"/>
  <path d="M 120 70 Q 115 80 110 95" stroke="#2E7D32" stroke-width="1" fill="none" opacity="0.5"/>
  
  <!-- Folha Esquerda Pequena -->
  <path d="M 50 80 Q 45 95 50 110 Q 60 105 65 90 Q 60 80 50 80 Z" 
        fill="#81C784" stroke="#2E7D32" stroke-width="1.5"/>
  <path d="M 50 85 Q 50 95 50 105" stroke="#2E7D32" stroke-width="1" fill="none" opacity="0.5"/>
  
  <!-- Folha Direita Pequena -->
  <path d="M 150 80 Q 155 95 150 110 Q 140 105 135 90 Q 140 80 150 80 Z" 
        fill="#81C784" stroke="#2E7D32" stroke-width="1.5"/>
  <path d="M 150 85 Q 150 95 150 105" stroke="#2E7D32" stroke-width="1" fill="none" opacity="0.5"/>
  
  <!-- Gotículas de água (orvalho) -->
  <circle cx="95" cy="50" r="3" fill="#64B5F6" opacity="0.8"/>
  <circle cx="110" cy="70" r="2" fill="#64B5F6" opacity="0.6"/>
  <circle cx="75" cy="75" r="2.5" fill="#64B5F6" opacity="0.7"/>
  
  <!-- Brilho -->
  <ellipse cx="85" cy="60" rx="15" ry="10" fill="white" opacity="0.2"/>
</svg>